<mxfile host="app.diagrams.net" modified="2022-09-07T11:44:12.879Z" agent="5.0 (Windows NT 10.0; Win64; x64) AppleWebKit/537.36 (KHTML, like Gecko) Chrome/104.0.5112.102 Safari/537.36 OPR/90.0.4480.64" etag="Yr6Vpo6GoKcLcXXVMCeI" version="20.2.8" type="github" pages="2">
  <diagram id="n3HsWPKC9BcfrFoE6lrO" name="Classes">
    <mxGraphModel dx="1654" dy="1659" grid="1" gridSize="10" guides="1" tooltips="1" connect="1" arrows="1" fold="1" page="1" pageScale="1" pageWidth="827" pageHeight="1169" math="0" shadow="0">
      <root>
        <mxCell id="0" />
        <mxCell id="1" parent="0" />
        <mxCell id="VxP2XsV1p8CQdQtkffWP-2" value="Estacionamento&#xa;" style="swimlane;fontStyle=1;align=center;verticalAlign=top;childLayout=stackLayout;horizontal=1;startSize=26;horizontalStack=0;resizeParent=1;resizeParentMax=0;resizeLast=0;collapsible=1;marginBottom=0;" parent="1" vertex="1">
          <mxGeometry y="-210" width="260" height="710" as="geometry" />
        </mxCell>
        <mxCell id="VxP2XsV1p8CQdQtkffWP-3" value=" nome: string" style="text;strokeColor=none;fillColor=none;align=left;verticalAlign=top;spacingLeft=4;spacingRight=4;overflow=hidden;rotatable=0;points=[[0,0.5],[1,0.5]];portConstraint=eastwest;" parent="VxP2XsV1p8CQdQtkffWP-2" vertex="1">
          <mxGeometry y="26" width="260" height="26" as="geometry" />
        </mxCell>
        <mxCell id="VxP2XsV1p8CQdQtkffWP-10" value=" capacidade: int&#xa;" style="text;strokeColor=none;fillColor=none;align=left;verticalAlign=top;spacingLeft=4;spacingRight=4;overflow=hidden;rotatable=0;points=[[0,0.5],[1,0.5]];portConstraint=eastwest;" parent="VxP2XsV1p8CQdQtkffWP-2" vertex="1">
          <mxGeometry y="52" width="260" height="26" as="geometry" />
        </mxCell>
        <mxCell id="VxP2XsV1p8CQdQtkffWP-11" value=" horarioAbertura: string" style="text;strokeColor=none;fillColor=none;align=left;verticalAlign=top;spacingLeft=4;spacingRight=4;overflow=hidden;rotatable=0;points=[[0,0.5],[1,0.5]];portConstraint=eastwest;" parent="VxP2XsV1p8CQdQtkffWP-2" vertex="1">
          <mxGeometry y="78" width="260" height="26" as="geometry" />
        </mxCell>
        <mxCell id="OJVXcZlJsAUgDRDbPujy-1" value=" horarioFechamento: string" style="text;strokeColor=none;fillColor=none;align=left;verticalAlign=top;spacingLeft=4;spacingRight=4;overflow=hidden;rotatable=0;points=[[0,0.5],[1,0.5]];portConstraint=eastwest;" parent="VxP2XsV1p8CQdQtkffWP-2" vertex="1">
          <mxGeometry y="104" width="260" height="26" as="geometry" />
        </mxCell>
        <mxCell id="VxP2XsV1p8CQdQtkffWP-13" value=" valorFracao: float&#xa;" style="text;strokeColor=none;fillColor=none;align=left;verticalAlign=top;spacingLeft=4;spacingRight=4;overflow=hidden;rotatable=0;points=[[0,0.5],[1,0.5]];portConstraint=eastwest;" parent="VxP2XsV1p8CQdQtkffWP-2" vertex="1">
          <mxGeometry y="130" width="260" height="26" as="geometry" />
        </mxCell>
        <mxCell id="VxP2XsV1p8CQdQtkffWP-14" value="descontoHora: float" style="text;strokeColor=none;fillColor=none;align=left;verticalAlign=top;spacingLeft=4;spacingRight=4;overflow=hidden;rotatable=0;points=[[0,0.5],[1,0.5]];portConstraint=eastwest;" parent="VxP2XsV1p8CQdQtkffWP-2" vertex="1">
          <mxGeometry y="156" width="260" height="26" as="geometry" />
        </mxCell>
        <mxCell id="VxP2XsV1p8CQdQtkffWP-12" value="valorDiurna: float&#xa;&#xa;valorNoturna: float&#xa;&#xa;valorMensal: float&#xa;&#xa;valorEvento: float&#xa;&#xa;retornoContratante: float&#xa;&#xa;" style="text;strokeColor=none;fillColor=none;align=left;verticalAlign=top;spacingLeft=4;spacingRight=4;overflow=hidden;rotatable=0;points=[[0,0.5],[1,0.5]];portConstraint=eastwest;" parent="VxP2XsV1p8CQdQtkffWP-2" vertex="1">
          <mxGeometry y="182" width="260" height="134" as="geometry" />
        </mxCell>
        <mxCell id="zof1cizepwJFF0A06KsF-2" value="inicioNoturno: string" style="text;strokeColor=none;fillColor=none;align=left;verticalAlign=top;spacingLeft=4;spacingRight=4;overflow=hidden;rotatable=0;points=[[0,0.5],[1,0.5]];portConstraint=eastwest;" parent="VxP2XsV1p8CQdQtkffWP-2" vertex="1">
          <mxGeometry y="316" width="260" height="26" as="geometry" />
        </mxCell>
        <mxCell id="zof1cizepwJFF0A06KsF-1" value="inicioDiurno: string" style="text;strokeColor=none;fillColor=none;align=left;verticalAlign=top;spacingLeft=4;spacingRight=4;overflow=hidden;rotatable=0;points=[[0,0.5],[1,0.5]];portConstraint=eastwest;" parent="VxP2XsV1p8CQdQtkffWP-2" vertex="1">
          <mxGeometry y="342" width="260" height="26" as="geometry" />
        </mxCell>
        <mxCell id="VxP2XsV1p8CQdQtkffWP-4" value="" style="line;strokeWidth=1;fillColor=none;align=left;verticalAlign=middle;spacingTop=-1;spacingLeft=3;spacingRight=3;rotatable=0;labelPosition=right;points=[];portConstraint=eastwest;" parent="VxP2XsV1p8CQdQtkffWP-2" vertex="1">
          <mxGeometry y="368" width="260" height="10" as="geometry" />
        </mxCell>
        <mxCell id="VxP2XsV1p8CQdQtkffWP-5" value="&#xa;cadastrarEvento(): void&#xa;&#xa;relatorioEvento(Evento): void&#xa;&#xa;apagarEvento(Evento): void&#xa;&#xa;editarEvento(Evento): void&#xa;&#xa;cadastrarAcesso():void&#xa;&#xa;calcularValorAcesso(String tipoAcesso): float&#xa;&#xa;findAcesso(String Placa): void&#xa;&#xa;relatorioAcesso(Evento): void&#xa;&#xa;apagarAcesso (Acesso): void&#xa;&#xa;editarAcesso(Acesso): void&#xa;&#xa;calcularRetornoTotal(): void" style="text;strokeColor=none;fillColor=none;align=left;verticalAlign=top;spacingLeft=4;spacingRight=4;overflow=hidden;rotatable=0;points=[[0,0.5],[1,0.5]];portConstraint=eastwest;" parent="VxP2XsV1p8CQdQtkffWP-2" vertex="1">
          <mxGeometry y="378" width="260" height="332" as="geometry" />
        </mxCell>
        <mxCell id="y3Uu669ifDR9-FXE01mr-2" value="Acesso" style="swimlane;fontStyle=1;align=center;verticalAlign=top;childLayout=stackLayout;horizontal=1;startSize=26;horizontalStack=0;resizeParent=1;resizeParentMax=0;resizeLast=0;collapsible=1;marginBottom=0;" parent="1" vertex="1">
          <mxGeometry x="730" y="-140" width="300" height="214" as="geometry" />
        </mxCell>
        <mxCell id="y3Uu669ifDR9-FXE01mr-3" value="&#xa;horaEnt: LocalTime&#xa;&#xa;horaSai: LocalTime&#xa;&#xa;dataEnt: LocalDate&#xa;&#xa;dataSai: LocalDate&#xa;&#xa;valor:Float" style="text;strokeColor=none;fillColor=none;align=left;verticalAlign=top;spacingLeft=4;spacingRight=4;overflow=hidden;rotatable=0;points=[[0,0.5],[1,0.5]];portConstraint=eastwest;" parent="y3Uu669ifDR9-FXE01mr-2" vertex="1">
          <mxGeometry y="26" width="300" height="154" as="geometry" />
        </mxCell>
        <mxCell id="y3Uu669ifDR9-FXE01mr-4" value="" style="line;strokeWidth=1;fillColor=none;align=left;verticalAlign=middle;spacingTop=-1;spacingLeft=3;spacingRight=3;rotatable=0;labelPosition=right;points=[];portConstraint=eastwest;" parent="y3Uu669ifDR9-FXE01mr-2" vertex="1">
          <mxGeometry y="180" width="300" height="8" as="geometry" />
        </mxCell>
        <mxCell id="y3Uu669ifDR9-FXE01mr-5" value="&#xa;&#xa;" style="text;strokeColor=none;fillColor=none;align=left;verticalAlign=top;spacingLeft=4;spacingRight=4;overflow=hidden;rotatable=0;points=[[0,0.5],[1,0.5]];portConstraint=eastwest;" parent="y3Uu669ifDR9-FXE01mr-2" vertex="1">
          <mxGeometry y="188" width="300" height="26" as="geometry" />
        </mxCell>
        <mxCell id="y3Uu669ifDR9-FXE01mr-6" value="-veiculos" style="endArrow=block;endFill=1;html=1;edgeStyle=orthogonalEdgeStyle;align=left;verticalAlign=top;rounded=0;exitX=1;exitY=0.5;exitDx=0;exitDy=0;entryX=-0.009;entryY=0.331;entryDx=0;entryDy=0;entryPerimeter=0;" parent="1" source="VxP2XsV1p8CQdQtkffWP-11" target="y3Uu669ifDR9-FXE01mr-3" edge="1">
          <mxGeometry x="-1" relative="1" as="geometry">
            <mxPoint x="180" y="140" as="sourcePoint" />
            <mxPoint x="710" y="-90" as="targetPoint" />
            <Array as="points">
              <mxPoint x="260" y="-73" />
            </Array>
          </mxGeometry>
        </mxCell>
        <mxCell id="y3Uu669ifDR9-FXE01mr-7" value="*" style="edgeLabel;resizable=0;html=1;align=left;verticalAlign=bottom;" parent="y3Uu669ifDR9-FXE01mr-6" connectable="0" vertex="1">
          <mxGeometry x="-1" relative="1" as="geometry">
            <mxPoint x="570" y="-115" as="offset" />
          </mxGeometry>
        </mxCell>
        <mxCell id="y3Uu669ifDR9-FXE01mr-8" value="AcessoFracao" style="swimlane;fontStyle=1;align=center;verticalAlign=top;childLayout=stackLayout;horizontal=1;startSize=26;horizontalStack=0;resizeParent=1;resizeParentMax=0;resizeLast=0;collapsible=1;marginBottom=0;" parent="1" vertex="1">
          <mxGeometry x="300" y="114.67" width="360" height="86" as="geometry" />
        </mxCell>
        <mxCell id="y3Uu669ifDR9-FXE01mr-9" value=" valor: float" style="text;strokeColor=none;fillColor=none;align=left;verticalAlign=top;spacingLeft=4;spacingRight=4;overflow=hidden;rotatable=0;points=[[0,0.5],[1,0.5]];portConstraint=eastwest;" parent="y3Uu669ifDR9-FXE01mr-8" vertex="1">
          <mxGeometry y="26" width="360" height="26" as="geometry" />
        </mxCell>
        <mxCell id="y3Uu669ifDR9-FXE01mr-10" value="" style="line;strokeWidth=1;fillColor=none;align=left;verticalAlign=middle;spacingTop=-1;spacingLeft=3;spacingRight=3;rotatable=0;labelPosition=right;points=[];portConstraint=eastwest;" parent="y3Uu669ifDR9-FXE01mr-8" vertex="1">
          <mxGeometry y="52" width="360" height="8" as="geometry" />
        </mxCell>
        <mxCell id="y3Uu669ifDR9-FXE01mr-11" value="&#xa;&#xa;" style="text;strokeColor=none;fillColor=none;align=left;verticalAlign=top;spacingLeft=4;spacingRight=4;overflow=hidden;rotatable=0;points=[[0,0.5],[1,0.5]];portConstraint=eastwest;" parent="y3Uu669ifDR9-FXE01mr-8" vertex="1">
          <mxGeometry y="60" width="360" height="26" as="geometry" />
        </mxCell>
        <mxCell id="y3Uu669ifDR9-FXE01mr-12" value="AcessoNoturno" style="swimlane;fontStyle=1;align=center;verticalAlign=top;childLayout=stackLayout;horizontal=1;startSize=26;horizontalStack=0;resizeParent=1;resizeParentMax=0;resizeLast=0;collapsible=1;marginBottom=0;" parent="1" vertex="1">
          <mxGeometry x="700" y="114.67" width="360" height="86" as="geometry">
            <mxRectangle x="700" y="114.67" width="130" height="30" as="alternateBounds" />
          </mxGeometry>
        </mxCell>
        <mxCell id="y3Uu669ifDR9-FXE01mr-13" value=" valor: float" style="text;strokeColor=none;fillColor=none;align=left;verticalAlign=top;spacingLeft=4;spacingRight=4;overflow=hidden;rotatable=0;points=[[0,0.5],[1,0.5]];portConstraint=eastwest;" parent="y3Uu669ifDR9-FXE01mr-12" vertex="1">
          <mxGeometry y="26" width="360" height="26" as="geometry" />
        </mxCell>
        <mxCell id="y3Uu669ifDR9-FXE01mr-14" value="" style="line;strokeWidth=1;fillColor=none;align=left;verticalAlign=middle;spacingTop=-1;spacingLeft=3;spacingRight=3;rotatable=0;labelPosition=right;points=[];portConstraint=eastwest;" parent="y3Uu669ifDR9-FXE01mr-12" vertex="1">
          <mxGeometry y="52" width="360" height="8" as="geometry" />
        </mxCell>
        <mxCell id="y3Uu669ifDR9-FXE01mr-15" value="&#xa;&#xa;" style="text;strokeColor=none;fillColor=none;align=left;verticalAlign=top;spacingLeft=4;spacingRight=4;overflow=hidden;rotatable=0;points=[[0,0.5],[1,0.5]];portConstraint=eastwest;" parent="y3Uu669ifDR9-FXE01mr-12" vertex="1">
          <mxGeometry y="60" width="360" height="26" as="geometry" />
        </mxCell>
        <mxCell id="y3Uu669ifDR9-FXE01mr-16" value="AcessoHora" style="swimlane;fontStyle=1;align=center;verticalAlign=top;childLayout=stackLayout;horizontal=1;startSize=26;horizontalStack=0;resizeParent=1;resizeParentMax=0;resizeLast=0;collapsible=1;marginBottom=0;" parent="1" vertex="1">
          <mxGeometry x="1100" y="114.67" width="360" height="86" as="geometry">
            <mxRectangle x="1100" y="114.67" width="110" height="30" as="alternateBounds" />
          </mxGeometry>
        </mxCell>
        <mxCell id="y3Uu669ifDR9-FXE01mr-17" value=" valor: float" style="text;strokeColor=none;fillColor=none;align=left;verticalAlign=top;spacingLeft=4;spacingRight=4;overflow=hidden;rotatable=0;points=[[0,0.5],[1,0.5]];portConstraint=eastwest;" parent="y3Uu669ifDR9-FXE01mr-16" vertex="1">
          <mxGeometry y="26" width="360" height="26" as="geometry" />
        </mxCell>
        <mxCell id="y3Uu669ifDR9-FXE01mr-18" value="" style="line;strokeWidth=1;fillColor=none;align=left;verticalAlign=middle;spacingTop=-1;spacingLeft=3;spacingRight=3;rotatable=0;labelPosition=right;points=[];portConstraint=eastwest;" parent="y3Uu669ifDR9-FXE01mr-16" vertex="1">
          <mxGeometry y="52" width="360" height="8" as="geometry" />
        </mxCell>
        <mxCell id="y3Uu669ifDR9-FXE01mr-19" value="&#xa;&#xa;" style="text;strokeColor=none;fillColor=none;align=left;verticalAlign=top;spacingLeft=4;spacingRight=4;overflow=hidden;rotatable=0;points=[[0,0.5],[1,0.5]];portConstraint=eastwest;" parent="y3Uu669ifDR9-FXE01mr-16" vertex="1">
          <mxGeometry y="60" width="360" height="26" as="geometry" />
        </mxCell>
        <mxCell id="y3Uu669ifDR9-FXE01mr-20" value="AcessoMensal" style="swimlane;fontStyle=1;align=center;verticalAlign=top;childLayout=stackLayout;horizontal=1;startSize=26;horizontalStack=0;resizeParent=1;resizeParentMax=0;resizeLast=0;collapsible=1;marginBottom=0;" parent="1" vertex="1">
          <mxGeometry x="300" y="234.67000000000002" width="360" height="86" as="geometry" />
        </mxCell>
        <mxCell id="y3Uu669ifDR9-FXE01mr-21" value=" valor: float" style="text;strokeColor=none;fillColor=none;align=left;verticalAlign=top;spacingLeft=4;spacingRight=4;overflow=hidden;rotatable=0;points=[[0,0.5],[1,0.5]];portConstraint=eastwest;" parent="y3Uu669ifDR9-FXE01mr-20" vertex="1">
          <mxGeometry y="26" width="360" height="26" as="geometry" />
        </mxCell>
        <mxCell id="y3Uu669ifDR9-FXE01mr-22" value="" style="line;strokeWidth=1;fillColor=none;align=left;verticalAlign=middle;spacingTop=-1;spacingLeft=3;spacingRight=3;rotatable=0;labelPosition=right;points=[];portConstraint=eastwest;" parent="y3Uu669ifDR9-FXE01mr-20" vertex="1">
          <mxGeometry y="52" width="360" height="8" as="geometry" />
        </mxCell>
        <mxCell id="y3Uu669ifDR9-FXE01mr-23" value="&#xa;&#xa;" style="text;strokeColor=none;fillColor=none;align=left;verticalAlign=top;spacingLeft=4;spacingRight=4;overflow=hidden;rotatable=0;points=[[0,0.5],[1,0.5]];portConstraint=eastwest;" parent="y3Uu669ifDR9-FXE01mr-20" vertex="1">
          <mxGeometry y="60" width="360" height="26" as="geometry" />
        </mxCell>
        <mxCell id="y3Uu669ifDR9-FXE01mr-24" value="AcessoDiurna" style="swimlane;fontStyle=1;align=center;verticalAlign=top;childLayout=stackLayout;horizontal=1;startSize=26;horizontalStack=0;resizeParent=1;resizeParentMax=0;resizeLast=0;collapsible=1;marginBottom=0;" parent="1" vertex="1">
          <mxGeometry x="700" y="228.67000000000002" width="360" height="86" as="geometry" />
        </mxCell>
        <mxCell id="y3Uu669ifDR9-FXE01mr-25" value=" valor: float" style="text;strokeColor=none;fillColor=none;align=left;verticalAlign=top;spacingLeft=4;spacingRight=4;overflow=hidden;rotatable=0;points=[[0,0.5],[1,0.5]];portConstraint=eastwest;" parent="y3Uu669ifDR9-FXE01mr-24" vertex="1">
          <mxGeometry y="26" width="360" height="26" as="geometry" />
        </mxCell>
        <mxCell id="y3Uu669ifDR9-FXE01mr-26" value="" style="line;strokeWidth=1;fillColor=none;align=left;verticalAlign=middle;spacingTop=-1;spacingLeft=3;spacingRight=3;rotatable=0;labelPosition=right;points=[];portConstraint=eastwest;" parent="y3Uu669ifDR9-FXE01mr-24" vertex="1">
          <mxGeometry y="52" width="360" height="8" as="geometry" />
        </mxCell>
        <mxCell id="y3Uu669ifDR9-FXE01mr-27" value="&#xa;&#xa;" style="text;strokeColor=none;fillColor=none;align=left;verticalAlign=top;spacingLeft=4;spacingRight=4;overflow=hidden;rotatable=0;points=[[0,0.5],[1,0.5]];portConstraint=eastwest;" parent="y3Uu669ifDR9-FXE01mr-24" vertex="1">
          <mxGeometry y="60" width="360" height="26" as="geometry" />
        </mxCell>
        <mxCell id="y3Uu669ifDR9-FXE01mr-28" value="AcessoEvento" style="swimlane;fontStyle=1;align=center;verticalAlign=top;childLayout=stackLayout;horizontal=1;startSize=26;horizontalStack=0;resizeParent=1;resizeParentMax=0;resizeLast=0;collapsible=1;marginBottom=0;" parent="1" vertex="1">
          <mxGeometry x="1100" y="228.67000000000002" width="360" height="86" as="geometry" />
        </mxCell>
        <mxCell id="y3Uu669ifDR9-FXE01mr-29" value=" valor: float" style="text;strokeColor=none;fillColor=none;align=left;verticalAlign=top;spacingLeft=4;spacingRight=4;overflow=hidden;rotatable=0;points=[[0,0.5],[1,0.5]];portConstraint=eastwest;" parent="y3Uu669ifDR9-FXE01mr-28" vertex="1">
          <mxGeometry y="26" width="360" height="26" as="geometry" />
        </mxCell>
        <mxCell id="y3Uu669ifDR9-FXE01mr-30" value="" style="line;strokeWidth=1;fillColor=none;align=left;verticalAlign=middle;spacingTop=-1;spacingLeft=3;spacingRight=3;rotatable=0;labelPosition=right;points=[];portConstraint=eastwest;" parent="y3Uu669ifDR9-FXE01mr-28" vertex="1">
          <mxGeometry y="52" width="360" height="8" as="geometry" />
        </mxCell>
        <mxCell id="y3Uu669ifDR9-FXE01mr-31" value="&#xa;&#xa;" style="text;strokeColor=none;fillColor=none;align=left;verticalAlign=top;spacingLeft=4;spacingRight=4;overflow=hidden;rotatable=0;points=[[0,0.5],[1,0.5]];portConstraint=eastwest;" parent="y3Uu669ifDR9-FXE01mr-28" vertex="1">
          <mxGeometry y="60" width="360" height="26" as="geometry" />
        </mxCell>
        <mxCell id="y3Uu669ifDR9-FXE01mr-32" value="Evento" style="swimlane;fontStyle=1;align=center;verticalAlign=top;childLayout=stackLayout;horizontal=1;startSize=26;horizontalStack=0;resizeParent=1;resizeParentMax=0;resizeLast=0;collapsible=1;marginBottom=0;" parent="1" vertex="1">
          <mxGeometry x="-20" y="790" width="310" height="174" as="geometry" />
        </mxCell>
        <mxCell id="y3Uu669ifDR9-FXE01mr-33" value=" nome: string&#xa;&#xa; horaInicio: string&#xa;&#xa; horaFim: string&#xa;&#xa; data: string" style="text;strokeColor=none;fillColor=none;align=left;verticalAlign=top;spacingLeft=4;spacingRight=4;overflow=hidden;rotatable=0;points=[[0,0.5],[1,0.5]];portConstraint=eastwest;" parent="y3Uu669ifDR9-FXE01mr-32" vertex="1">
          <mxGeometry y="26" width="310" height="114" as="geometry" />
        </mxCell>
        <mxCell id="y3Uu669ifDR9-FXE01mr-34" value="" style="line;strokeWidth=1;fillColor=none;align=left;verticalAlign=middle;spacingTop=-1;spacingLeft=3;spacingRight=3;rotatable=0;labelPosition=right;points=[];portConstraint=eastwest;" parent="y3Uu669ifDR9-FXE01mr-32" vertex="1">
          <mxGeometry y="140" width="310" height="8" as="geometry" />
        </mxCell>
        <mxCell id="y3Uu669ifDR9-FXE01mr-35" value="&#xa;&#xa;" style="text;strokeColor=none;fillColor=none;align=left;verticalAlign=top;spacingLeft=4;spacingRight=4;overflow=hidden;rotatable=0;points=[[0,0.5],[1,0.5]];portConstraint=eastwest;" parent="y3Uu669ifDR9-FXE01mr-32" vertex="1">
          <mxGeometry y="148" width="310" height="26" as="geometry" />
        </mxCell>
        <mxCell id="y3Uu669ifDR9-FXE01mr-39" value="&lt;br&gt;" style="endArrow=block;endSize=16;endFill=0;html=1;rounded=0;entryX=0.517;entryY=0.998;entryDx=0;entryDy=0;entryPerimeter=0;" parent="1" target="y3Uu669ifDR9-FXE01mr-5" edge="1">
          <mxGeometry x="-0.1685" y="-170" width="160" relative="1" as="geometry">
            <mxPoint x="885" y="84.67" as="sourcePoint" />
            <mxPoint x="885.4000000000001" y="59.99600000000002" as="targetPoint" />
            <mxPoint as="offset" />
          </mxGeometry>
        </mxCell>
        <mxCell id="y3Uu669ifDR9-FXE01mr-41" value="" style="endArrow=none;html=1;edgeStyle=orthogonalEdgeStyle;rounded=0;" parent="1" edge="1">
          <mxGeometry relative="1" as="geometry">
            <mxPoint x="680" y="84.67" as="sourcePoint" />
            <mxPoint x="680" y="274.67" as="targetPoint" />
          </mxGeometry>
        </mxCell>
        <mxCell id="y3Uu669ifDR9-FXE01mr-44" value="" style="endArrow=none;html=1;edgeStyle=orthogonalEdgeStyle;rounded=0;" parent="1" edge="1">
          <mxGeometry relative="1" as="geometry">
            <mxPoint x="1030" y="84.67" as="sourcePoint" />
            <mxPoint x="1080" y="274.67" as="targetPoint" />
          </mxGeometry>
        </mxCell>
        <mxCell id="y3Uu669ifDR9-FXE01mr-45" value="" style="endArrow=none;html=1;edgeStyle=orthogonalEdgeStyle;rounded=0;" parent="1" edge="1">
          <mxGeometry relative="1" as="geometry">
            <mxPoint x="680" y="84.67" as="sourcePoint" />
            <mxPoint x="1030" y="84.67" as="targetPoint" />
            <Array as="points">
              <mxPoint x="810" y="84.67" />
              <mxPoint x="810" y="84.67" />
            </Array>
          </mxGeometry>
        </mxCell>
        <mxCell id="y3Uu669ifDR9-FXE01mr-46" value="" style="endArrow=none;html=1;edgeStyle=orthogonalEdgeStyle;rounded=0;" parent="1" edge="1">
          <mxGeometry relative="1" as="geometry">
            <mxPoint x="660" y="271.17" as="sourcePoint" />
            <mxPoint x="700" y="271.17" as="targetPoint" />
            <Array as="points">
              <mxPoint x="680" y="271.17" />
              <mxPoint x="680" y="271.17" />
            </Array>
          </mxGeometry>
        </mxCell>
        <mxCell id="y3Uu669ifDR9-FXE01mr-48" value="" style="endArrow=none;html=1;edgeStyle=orthogonalEdgeStyle;rounded=0;" parent="1" edge="1">
          <mxGeometry relative="1" as="geometry">
            <mxPoint x="660" y="154.67000000000002" as="sourcePoint" />
            <mxPoint x="700" y="154.67000000000002" as="targetPoint" />
            <Array as="points">
              <mxPoint x="680" y="154.67000000000002" />
              <mxPoint x="680" y="154.67000000000002" />
            </Array>
          </mxGeometry>
        </mxCell>
        <mxCell id="y3Uu669ifDR9-FXE01mr-49" value="" style="endArrow=none;html=1;edgeStyle=orthogonalEdgeStyle;rounded=0;" parent="1" edge="1">
          <mxGeometry relative="1" as="geometry">
            <mxPoint x="1060" y="271.17" as="sourcePoint" />
            <mxPoint x="1100" y="271.17" as="targetPoint" />
            <Array as="points">
              <mxPoint x="1080" y="271.17" />
              <mxPoint x="1080" y="271.17" />
            </Array>
          </mxGeometry>
        </mxCell>
        <mxCell id="y3Uu669ifDR9-FXE01mr-50" value="" style="endArrow=none;html=1;edgeStyle=orthogonalEdgeStyle;rounded=0;entryX=0;entryY=0.5;entryDx=0;entryDy=0;exitX=1;exitY=0.5;exitDx=0;exitDy=0;" parent="1" source="y3Uu669ifDR9-FXE01mr-13" target="y3Uu669ifDR9-FXE01mr-17" edge="1">
          <mxGeometry relative="1" as="geometry">
            <mxPoint x="1020" y="153.67000000000002" as="sourcePoint" />
            <mxPoint x="920" y="184.67000000000002" as="targetPoint" />
            <Array as="points" />
          </mxGeometry>
        </mxCell>
        <mxCell id="y3Uu669ifDR9-FXE01mr-51" value="- eventos" style="endArrow=block;endFill=1;html=1;edgeStyle=orthogonalEdgeStyle;align=left;verticalAlign=top;rounded=0;entryX=0.484;entryY=0;entryDx=0;entryDy=0;exitX=0.495;exitY=1.002;exitDx=0;exitDy=0;exitPerimeter=0;entryPerimeter=0;" parent="1" source="VxP2XsV1p8CQdQtkffWP-5" target="y3Uu669ifDR9-FXE01mr-32" edge="1">
          <mxGeometry x="-1" y="-6" relative="1" as="geometry">
            <mxPoint x="720" y="260" as="sourcePoint" />
            <mxPoint x="670" y="280" as="targetPoint" />
            <Array as="points">
              <mxPoint x="129" y="510" />
              <mxPoint x="130" y="510" />
            </Array>
            <mxPoint x="6" y="-6" as="offset" />
          </mxGeometry>
        </mxCell>
        <mxCell id="y3Uu669ifDR9-FXE01mr-52" value="*" style="edgeLabel;resizable=0;html=1;align=left;verticalAlign=bottom;" parent="y3Uu669ifDR9-FXE01mr-51" connectable="0" vertex="1">
          <mxGeometry x="-1" relative="1" as="geometry">
            <mxPoint x="-19" y="82" as="offset" />
          </mxGeometry>
        </mxCell>
        <mxCell id="y3Uu669ifDR9-FXE01mr-57" value="Gerenciador&#xa;" style="swimlane;fontStyle=1;align=center;verticalAlign=top;childLayout=stackLayout;horizontal=1;startSize=26;horizontalStack=0;resizeParent=1;resizeParentMax=0;resizeLast=0;collapsible=1;marginBottom=0;" parent="1" vertex="1">
          <mxGeometry x="-20" y="-600" width="300" height="210" as="geometry" />
        </mxCell>
        <mxCell id="y3Uu669ifDR9-FXE01mr-58" value="&#xa;&#xa;" style="text;strokeColor=none;fillColor=none;align=left;verticalAlign=top;spacingLeft=4;spacingRight=4;overflow=hidden;rotatable=0;points=[[0,0.5],[1,0.5]];portConstraint=eastwest;" parent="y3Uu669ifDR9-FXE01mr-57" vertex="1">
          <mxGeometry y="26" width="300" height="64" as="geometry" />
        </mxCell>
        <mxCell id="y3Uu669ifDR9-FXE01mr-59" value="" style="line;strokeWidth=1;fillColor=none;align=left;verticalAlign=middle;spacingTop=-1;spacingLeft=3;spacingRight=3;rotatable=0;labelPosition=right;points=[];portConstraint=eastwest;" parent="y3Uu669ifDR9-FXE01mr-57" vertex="1">
          <mxGeometry y="90" width="300" height="8" as="geometry" />
        </mxCell>
        <mxCell id="y3Uu669ifDR9-FXE01mr-60" value="- cadastrarEstacacionamento(Estacionamento): void&#xa;&#xa;- editarEstacionamento(Estacionamento): string&#xa;&#xa;- relatorioEstacionamento(Estacionamento): void&#xa;&#xa;- apagarEstacionamento(Estacionamento): void" style="text;strokeColor=none;fillColor=none;align=left;verticalAlign=top;spacingLeft=4;spacingRight=4;overflow=hidden;rotatable=0;points=[[0,0.5],[1,0.5]];portConstraint=eastwest;" parent="y3Uu669ifDR9-FXE01mr-57" vertex="1">
          <mxGeometry y="98" width="300" height="112" as="geometry" />
        </mxCell>
        <mxCell id="y3Uu669ifDR9-FXE01mr-61" value="- estacionamentos" style="endArrow=block;endFill=1;html=1;edgeStyle=orthogonalEdgeStyle;align=left;verticalAlign=top;rounded=0;exitX=0.502;exitY=0.988;exitDx=0;exitDy=0;exitPerimeter=0;entryX=0.5;entryY=0;entryDx=0;entryDy=0;" parent="1" source="y3Uu669ifDR9-FXE01mr-60" target="VxP2XsV1p8CQdQtkffWP-2" edge="1">
          <mxGeometry x="-1" y="5" relative="1" as="geometry">
            <mxPoint x="120" y="-250" as="sourcePoint" />
            <mxPoint x="280" y="-250" as="targetPoint" />
            <mxPoint as="offset" />
            <Array as="points">
              <mxPoint x="130" y="-291" />
            </Array>
          </mxGeometry>
        </mxCell>
        <mxCell id="y3Uu669ifDR9-FXE01mr-62" value="*" style="edgeLabel;resizable=0;html=1;align=left;verticalAlign=bottom;" parent="y3Uu669ifDR9-FXE01mr-61" connectable="0" vertex="1">
          <mxGeometry x="-1" relative="1" as="geometry">
            <mxPoint x="-20" y="91" as="offset" />
          </mxGeometry>
        </mxCell>
      </root>
    </mxGraphModel>
  </diagram>
  <diagram id="PkJQ1TnxzTy76fye92Y9" name="Objetos">
    <mxGraphModel dx="1662" dy="762" grid="1" gridSize="10" guides="1" tooltips="1" connect="1" arrows="1" fold="1" page="1" pageScale="1" pageWidth="827" pageHeight="1169" math="0" shadow="0">
      <root>
        <mxCell id="0" />
        <mxCell id="1" parent="0" />
        <mxCell id="QJquCkZx6AmFqLon1BTP-2" style="edgeStyle=orthogonalEdgeStyle;rounded=0;orthogonalLoop=1;jettySize=auto;html=1;entryX=-0.006;entryY=0.56;entryDx=0;entryDy=0;fontFamily=Helvetica;fontSize=12;fontColor=#000000;entryPerimeter=0;" parent="1" source="BVEbGdJDmtgbI7iL5w3_-1" target="nzsYs39vptiGu1WQADIk-4" edge="1">
          <mxGeometry relative="1" as="geometry">
            <Array as="points">
              <mxPoint x="370" y="210" />
              <mxPoint x="370" y="280" />
              <mxPoint x="410" y="280" />
            </Array>
          </mxGeometry>
        </mxCell>
        <mxCell id="SGIuERcyoK9zzsOfPhRx-4" style="edgeStyle=orthogonalEdgeStyle;rounded=0;orthogonalLoop=1;jettySize=auto;html=1;fontFamily=Helvetica;fontSize=12;fontColor=#000000;entryX=0.004;entryY=0.562;entryDx=0;entryDy=0;entryPerimeter=0;" parent="1" source="BVEbGdJDmtgbI7iL5w3_-1" target="nzsYs39vptiGu1WQADIk-1" edge="1">
          <mxGeometry relative="1" as="geometry">
            <Array as="points">
              <mxPoint x="370" y="210" />
              <mxPoint x="370" y="150" />
              <mxPoint x="411" y="150" />
            </Array>
            <mxPoint x="410" y="160" as="targetPoint" />
          </mxGeometry>
        </mxCell>
        <mxCell id="BVEbGdJDmtgbI7iL5w3_-1" value="&lt;p style=&quot;margin:0px;margin-top:4px;text-align:center;text-decoration:underline;&quot;&gt;&lt;b&gt;Estacionamento_1: Estacionamento&lt;/b&gt;&lt;/p&gt;&lt;hr&gt;&lt;p style=&quot;margin:0px;margin-left:8px;&quot;&gt;nome = Estacionamento 1&amp;nbsp;&lt;/p&gt;&lt;p style=&quot;margin:0px;margin-left:8px;&quot;&gt;capacidade = 300&lt;br&gt;&lt;/p&gt;&lt;p style=&quot;margin:0px;margin-left:8px;&quot;&gt;horarioAbertura = 6:00&lt;/p&gt;&lt;p style=&quot;margin:0px;margin-left:8px;&quot;&gt;horarioFechamento = 22:00&lt;/p&gt;&lt;p style=&quot;margin:0px;margin-left:8px;&quot;&gt;valorFracao =&amp;nbsp; 30.00&lt;/p&gt;&lt;p style=&quot;margin:0px;margin-left:8px;&quot;&gt;valorDiurna = 120.00&lt;/p&gt;&lt;p style=&quot;margin:0px;margin-left:8px;&quot;&gt;valorNotuno = 0.45&lt;/p&gt;&lt;p style=&quot;margin:0px;margin-left:8px;&quot;&gt;descontoHora = 0.15&lt;/p&gt;&lt;p style=&quot;margin:0px;margin-left:8px;&quot;&gt;inicioNoturno = 19:00&lt;/p&gt;&lt;p style=&quot;margin:0px;margin-left:8px;&quot;&gt;fimNoturno = 9:00&lt;/p&gt;&lt;p style=&quot;margin:0px;margin-left:8px;&quot;&gt;valorMensal: 600.00&lt;/p&gt;&lt;p style=&quot;margin:0px;margin-left:8px;&quot;&gt;valorEvento: 50.00&lt;/p&gt;&lt;p style=&quot;margin:0px;margin-left:8px;&quot;&gt;retornoContratante: 0.5&lt;/p&gt;" style="verticalAlign=top;align=left;overflow=fill;fontSize=12;fontFamily=Helvetica;html=1;" parent="1" vertex="1">
          <mxGeometry x="100" y="100" width="230" height="220" as="geometry" />
        </mxCell>
        <mxCell id="ZNCcj3gocjjI5rig5ftj-1" style="edgeStyle=orthogonalEdgeStyle;rounded=0;orthogonalLoop=1;jettySize=auto;html=1;fontFamily=Helvetica;fontSize=12;fontColor=#000000;" parent="1" source="QP71yA802ZSlUaEgVkZL-1" target="ALb3BQRTyoP42hedGqVb-1" edge="1">
          <mxGeometry relative="1" as="geometry">
            <Array as="points">
              <mxPoint x="370" y="540" />
              <mxPoint x="370" y="480" />
            </Array>
          </mxGeometry>
        </mxCell>
        <mxCell id="SGIuERcyoK9zzsOfPhRx-3" style="edgeStyle=orthogonalEdgeStyle;rounded=0;orthogonalLoop=1;jettySize=auto;html=1;entryX=-0.002;entryY=0.559;entryDx=0;entryDy=0;fontFamily=Helvetica;fontSize=12;fontColor=#000000;entryPerimeter=0;" parent="1" source="QP71yA802ZSlUaEgVkZL-1" target="ALb3BQRTyoP42hedGqVb-3" edge="1">
          <mxGeometry relative="1" as="geometry">
            <Array as="points">
              <mxPoint x="370" y="540" />
              <mxPoint x="370" y="610" />
              <mxPoint x="414" y="610" />
            </Array>
          </mxGeometry>
        </mxCell>
        <mxCell id="QP71yA802ZSlUaEgVkZL-1" value="&lt;p style=&quot;margin:0px;margin-top:4px;text-align:center;text-decoration:underline;&quot;&gt;&lt;b&gt;Estacionamento_2: Estacionamento&lt;/b&gt;&lt;/p&gt;&lt;hr&gt;&lt;p style=&quot;margin:0px;margin-left:8px;&quot;&gt;nome = Estacionamento 2&lt;/p&gt;&lt;p style=&quot;margin:0px;margin-left:8px;&quot;&gt;capacidade = 120&lt;/p&gt;&lt;p style=&quot;margin:0px;margin-left:8px;&quot;&gt;horarioEntrada = 00:00&lt;/p&gt;&lt;p style=&quot;margin:0px;margin-left:8px;&quot;&gt;horarioSaida = 23:59&lt;/p&gt;&lt;p style=&quot;margin:0px;margin-left:8px;&quot;&gt;valorFracao = 20&lt;/p&gt;&lt;p style=&quot;margin:0px;margin-left:8px;&quot;&gt;descontoHora = 0.1&lt;/p&gt;&lt;p style=&quot;margin:0px;margin-left:8px;&quot;&gt;valorDiurno = 70&lt;/p&gt;&lt;p style=&quot;margin:0px;margin-left:8px;&quot;&gt;valorNoturno = 0.3&lt;/p&gt;&lt;p style=&quot;margin:0px;margin-left:8px;&quot;&gt;inicioNoturno = 21:00&lt;/p&gt;&lt;p style=&quot;margin:0px;margin-left:8px;&quot;&gt;fimNoturno = 7:00&lt;/p&gt;&lt;p style=&quot;background-color: rgb(248, 249, 250); margin: 0px 0px 0px 8px;&quot;&gt;valorMensal: 455.00&lt;/p&gt;&lt;p style=&quot;background-color: rgb(248, 249, 250); margin: 0px 0px 0px 8px;&quot;&gt;valorEvento: 60.00&lt;/p&gt;&lt;p style=&quot;background-color: rgb(248, 249, 250); margin: 0px 0px 0px 8px;&quot;&gt;retornoContratante: 0.6&lt;br&gt;&lt;/p&gt;" style="verticalAlign=top;align=left;overflow=fill;fontSize=12;fontFamily=Helvetica;html=1;labelBackgroundColor=#FFFFFF;fontColor=#000000;" parent="1" vertex="1">
          <mxGeometry x="100" y="430" width="230" height="220" as="geometry" />
        </mxCell>
        <mxCell id="SGIuERcyoK9zzsOfPhRx-5" style="edgeStyle=orthogonalEdgeStyle;rounded=0;orthogonalLoop=1;jettySize=auto;html=1;entryX=-0.011;entryY=0.562;entryDx=0;entryDy=0;fontFamily=Helvetica;fontSize=12;fontColor=#000000;entryPerimeter=0;" parent="1" source="nzsYs39vptiGu1WQADIk-1" target="nzsYs39vptiGu1WQADIk-2" edge="1">
          <mxGeometry relative="1" as="geometry">
            <Array as="points">
              <mxPoint x="600" y="150" />
            </Array>
          </mxGeometry>
        </mxCell>
        <mxCell id="nzsYs39vptiGu1WQADIk-1" value="&lt;p style=&quot;margin:0px;margin-top:4px;text-align:center;text-decoration:underline;&quot;&gt;&lt;b&gt;: Veiculo&lt;/b&gt;&lt;/p&gt;&lt;hr&gt;&lt;p style=&quot;margin:0px;margin-left:8px;&quot;&gt;placa = AC50M&lt;/p&gt;" style="verticalAlign=top;align=left;overflow=fill;fontSize=12;fontFamily=Helvetica;html=1;labelBackgroundColor=#FFFFFF;fontColor=#000000;" parent="1" vertex="1">
          <mxGeometry x="410" y="100" width="160" height="90" as="geometry" />
        </mxCell>
        <mxCell id="nzsYs39vptiGu1WQADIk-2" value="&lt;p style=&quot;margin:0px;margin-top:4px;text-align:center;text-decoration:underline;&quot;&gt;&lt;b&gt;: AcessoDiurna&lt;/b&gt;&lt;/p&gt;&lt;hr&gt;&lt;p style=&quot;margin:0px;margin-left:8px;&quot;&gt;horaEnt = 8:00&lt;/p&gt;&lt;p style=&quot;margin:0px;margin-left:8px;&quot;&gt;horaSai = 18:00&lt;/p&gt;" style="verticalAlign=top;align=left;overflow=fill;fontSize=12;fontFamily=Helvetica;html=1;labelBackgroundColor=#FFFFFF;fontColor=#000000;" parent="1" vertex="1">
          <mxGeometry x="630" y="100" width="160" height="90" as="geometry" />
        </mxCell>
        <mxCell id="nzsYs39vptiGu1WQADIk-3" value="&lt;p style=&quot;margin:0px;margin-top:4px;text-align:center;text-decoration:underline;&quot;&gt;&lt;b&gt;: AcessoNoturno&lt;/b&gt;&lt;/p&gt;&lt;hr&gt;&lt;p style=&quot;margin:0px;margin-left:8px;&quot;&gt;horaEnt = 20:00&lt;/p&gt;&lt;p style=&quot;margin:0px;margin-left:8px;&quot;&gt;horaSai = 7:00&lt;/p&gt;" style="verticalAlign=top;align=left;overflow=fill;fontSize=12;fontFamily=Helvetica;html=1;labelBackgroundColor=#FFFFFF;fontColor=#000000;" parent="1" vertex="1">
          <mxGeometry x="630" y="230" width="160" height="90" as="geometry" />
        </mxCell>
        <mxCell id="QJquCkZx6AmFqLon1BTP-1" style="edgeStyle=orthogonalEdgeStyle;rounded=0;orthogonalLoop=1;jettySize=auto;html=1;fontFamily=Helvetica;fontSize=12;fontColor=#000000;" parent="1" source="nzsYs39vptiGu1WQADIk-4" edge="1">
          <mxGeometry relative="1" as="geometry">
            <mxPoint x="630" y="280" as="targetPoint" />
            <Array as="points">
              <mxPoint x="630" y="280" />
            </Array>
          </mxGeometry>
        </mxCell>
        <mxCell id="nzsYs39vptiGu1WQADIk-4" value="&lt;p style=&quot;margin:0px;margin-top:4px;text-align:center;text-decoration:underline;&quot;&gt;&lt;b&gt;: Veiculo&lt;/b&gt;&lt;/p&gt;&lt;hr&gt;&lt;p style=&quot;margin:0px;margin-left:8px;&quot;&gt;placa = RM3A9&lt;/p&gt;" style="verticalAlign=top;align=left;overflow=fill;fontSize=12;fontFamily=Helvetica;html=1;labelBackgroundColor=#FFFFFF;fontColor=#000000;" parent="1" vertex="1">
          <mxGeometry x="410" y="230" width="160" height="90" as="geometry" />
        </mxCell>
        <mxCell id="SGIuERcyoK9zzsOfPhRx-1" style="edgeStyle=orthogonalEdgeStyle;rounded=0;orthogonalLoop=1;jettySize=auto;html=1;entryX=0.002;entryY=0.556;entryDx=0;entryDy=0;fontFamily=Helvetica;fontSize=12;fontColor=#000000;entryPerimeter=0;" parent="1" source="ALb3BQRTyoP42hedGqVb-1" target="ALb3BQRTyoP42hedGqVb-2" edge="1">
          <mxGeometry relative="1" as="geometry">
            <Array as="points">
              <mxPoint x="590" y="480" />
              <mxPoint x="590" y="480" />
            </Array>
          </mxGeometry>
        </mxCell>
        <mxCell id="ALb3BQRTyoP42hedGqVb-1" value="&lt;p style=&quot;margin:0px;margin-top:4px;text-align:center;text-decoration:underline;&quot;&gt;&lt;b&gt;: Veiculo&lt;/b&gt;&lt;/p&gt;&lt;hr&gt;&lt;p style=&quot;margin:0px;margin-left:8px;&quot;&gt;placa = HI139&lt;/p&gt;" style="verticalAlign=top;align=left;overflow=fill;fontSize=12;fontFamily=Helvetica;html=1;labelBackgroundColor=#FFFFFF;fontColor=#000000;" parent="1" vertex="1">
          <mxGeometry x="414" y="430" width="160" height="90" as="geometry" />
        </mxCell>
        <mxCell id="ALb3BQRTyoP42hedGqVb-2" value="&lt;p style=&quot;margin:0px;margin-top:4px;text-align:center;text-decoration:underline;&quot;&gt;&lt;b&gt;: AcessoHora&lt;/b&gt;&lt;/p&gt;&lt;hr&gt;&lt;p style=&quot;margin:0px;margin-left:8px;&quot;&gt;horaEnt = 8:30&lt;/p&gt;&lt;p style=&quot;margin:0px;margin-left:8px;&quot;&gt;horaSai = 9:30&lt;/p&gt;" style="verticalAlign=top;align=left;overflow=fill;fontSize=12;fontFamily=Helvetica;html=1;labelBackgroundColor=#FFFFFF;fontColor=#000000;" parent="1" vertex="1">
          <mxGeometry x="630" y="430" width="160" height="90" as="geometry" />
        </mxCell>
        <mxCell id="SGIuERcyoK9zzsOfPhRx-2" style="edgeStyle=orthogonalEdgeStyle;rounded=0;orthogonalLoop=1;jettySize=auto;html=1;fontFamily=Helvetica;fontSize=12;fontColor=#000000;" parent="1" source="ALb3BQRTyoP42hedGqVb-3" edge="1">
          <mxGeometry relative="1" as="geometry">
            <mxPoint x="630" y="610" as="targetPoint" />
            <Array as="points">
              <mxPoint x="630" y="610" />
            </Array>
          </mxGeometry>
        </mxCell>
        <mxCell id="ALb3BQRTyoP42hedGqVb-3" value="&lt;p style=&quot;margin:0px;margin-top:4px;text-align:center;text-decoration:underline;&quot;&gt;&lt;b&gt;: Veiculo&lt;/b&gt;&lt;/p&gt;&lt;hr&gt;&lt;p style=&quot;margin:0px;margin-left:8px;&quot;&gt;placa = AC50M&lt;/p&gt;" style="verticalAlign=top;align=left;overflow=fill;fontSize=12;fontFamily=Helvetica;html=1;labelBackgroundColor=#FFFFFF;fontColor=#000000;" parent="1" vertex="1">
          <mxGeometry x="414" y="560" width="160" height="90" as="geometry" />
        </mxCell>
        <mxCell id="ALb3BQRTyoP42hedGqVb-4" value="&lt;p style=&quot;margin:0px;margin-top:4px;text-align:center;text-decoration:underline;&quot;&gt;&lt;b&gt;: AcessoDiurna&lt;/b&gt;&lt;/p&gt;&lt;hr&gt;&lt;p style=&quot;margin:0px;margin-left:8px;&quot;&gt;horaEnt = 8:00&lt;/p&gt;&lt;p style=&quot;margin:0px;margin-left:8px;&quot;&gt;horaSai = 18:00&lt;/p&gt;" style="verticalAlign=top;align=left;overflow=fill;fontSize=12;fontFamily=Helvetica;html=1;labelBackgroundColor=#FFFFFF;fontColor=#000000;" parent="1" vertex="1">
          <mxGeometry x="630" y="560" width="160" height="90" as="geometry" />
        </mxCell>
      </root>
    </mxGraphModel>
  </diagram>
</mxfile>
